<svg width="1024" height="1024" viewBox="0 0 1024 1024" fill="none" xmlns="http://www.w3.org/2000/svg">
<rect width="1024" height="1024" fill="#09090A"/>
<mask id="mask0_1_196" style="mask-type:luminance" maskUnits="userSpaceOnUse" x="230" y="81" width="564" height="750">
<path d="M794 81H230V831H794V81Z" fill="white"/>
</mask>
<g mask="url(#mask0_1_196)">
<path d="M794 81H230V831H794V81Z" fill="#09090A"/>
<g filter="url(#filter0_d_1_196)">
<path d="M642.267 79.9699C610.966 81.7539 579.307 87.3146 546.713 96.7604C532.541 100.88 497.731 113.636 497.721 114.764C497.719 114.933 501.583 113.949 506.284 112.688C573.721 93.8707 599.012 89.106 638.92 87.4463C693.93 85.1724 732.347 98.7322 754.292 128.239C769.454 148.611 776.704 176.31 776.357 212.975C776.049 252.404 766.818 284.148 744.946 321.32C736.914 335.021 732.289 341.641 717.003 361.716C702.564 380.67 697.094 388.468 690.891 398.968C679.86 417.497 673.397 435.159 670.19 454.991C668.482 465.696 667.751 475.054 666.9 496.992C665.866 524.851 665.339 532.972 664.139 544.354C656.654 615.603 641.998 670.881 618.971 714.646C614.326 723.466 604.344 739.634 599.007 746.924C585.73 765.21 570.969 777.167 556.41 781.509L553.704 782.335L553.805 771.784C553.86 765.974 554.253 758.306 554.608 754.755C556.434 738.355 557.254 733.169 565.129 688.552C571.032 655.316 571.951 646.522 572.181 622.326C572.373 602.019 571.988 595.19 569.696 579.431C564.873 546.112 554.388 520.531 536.985 499.521C533.111 494.809 517.448 480.074 516.865 480.577C516.671 480.689 519.212 483.698 522.519 487.222C532.884 498.417 539.348 507.776 545.142 520.007C553.707 538.07 558.175 554.69 561.52 581.343C562.596 589.811 562.182 633.418 560.934 643.108C556.356 678.783 552.381 698.382 543.279 730.128C538.895 745.324 537.359 751.516 535.932 759.743C532.128 781.487 535.986 794.714 547.312 799.32C552.239 801.333 560.591 801.284 566.263 799.241C573.869 796.538 580.98 791.911 591.666 782.744C611.161 765.974 628.449 744.845 642.685 720.359C663.648 684.311 678.185 641.609 689.539 582.354C694.539 556.329 696.828 538.466 699.583 505.429C703.721 455.142 704.892 446.803 709.65 432.737C715.008 416.702 723.632 401.031 742.922 372.131C756.802 351.312 762.935 341.319 768.692 330.533C783.276 303.176 791.211 279.545 795.267 251.484C796.438 243.088 796.775 207.382 795.763 199.025C793.61 182.141 791.403 171.01 787.848 159.756C772.566 111.516 743.361 88.9469 686.258 81.3323C679.842 80.4919 649.659 79.5205 642.267 79.9699Z" fill="#28BFB6"/>
<path d="M607.83 121.217C583.764 132.197 550.184 137.179 513.716 135.086C492.464 133.903 479.436 132.559 446.847 127.958C436.453 126.522 423.045 124.668 417.014 123.887C407.455 122.57 403.22 122.086 391.99 120.756C384.867 119.966 363.488 118.613 356.68 118.559C331.628 118.362 308.208 122.352 291.05 129.719C273.377 137.308 258.467 151.463 247.554 171.008C240.562 183.476 236.6 194.897 234.017 209.825C232.796 216.642 232.531 244.677 233.555 251.849C237.233 277.207 243.484 295.477 256.425 319.441C266.59 338.194 278.816 356.399 301.398 386.644C326.836 420.635 335.499 435.145 340.162 451.485C341.532 456.122 341.767 458.436 341.714 463.965C341.636 472.2 340.841 474.789 332.77 492.664C329.686 499.465 326.4 507.281 325.474 510.094C320.451 525.005 316.263 539.806 313.976 550.621C308.12 578.891 310.39 617.215 320.91 666.32C321.587 669.427 323.243 677.675 324.59 684.68C329.432 709.201 333.358 722.038 339.356 733.086C350.341 753.371 368.237 756.161 377.971 739.088C383.261 729.935 385.385 722.732 392.775 688.604C393.579 685.058 395.517 677.174 397.18 671.154C414.089 608.668 433.807 561.55 458.18 524.904C483.92 486.353 517.418 456.155 558.092 434.757C562.61 432.423 566.098 430.477 565.84 430.475C565.006 430.468 556.619 434.238 547.906 438.513C496.789 463.834 455.805 504.352 424.047 561.137C402.613 599.439 384.71 644.822 366.19 707.799C363.271 717.648 360.816 725.865 360.686 725.98C360.233 726.371 354.655 704.89 351.886 692.006C344.749 658.836 342.119 631.344 343.013 598.064C343.73 569.807 346.201 553.13 352.771 530.898C355.823 520.659 358.189 514.978 364.402 503.406C375.782 482.059 377.037 478.402 377.094 465.654C377.171 450.705 373.998 439.849 364.715 422.965C356.947 408.857 348.131 396.941 329.577 375.415C306.258 348.379 298.457 337.768 286.637 317.423C256.806 265.797 247.299 218.279 260.332 185.155C267.902 165.922 284.113 149.973 305.074 141.225C315.521 136.907 324.793 134.668 340.357 132.703C350.391 131.428 387.647 131.722 406.326 133.28C413.579 133.845 422.823 134.594 426.867 134.908C430.911 135.222 440.475 135.975 448.05 136.599C465.573 138.034 532.761 138.733 545.362 137.648C567.863 135.739 581.893 133.085 594.077 128.555C599.492 126.51 609.754 121.515 610.406 120.504C610.926 119.831 610.862 119.831 607.83 121.217Z" fill="#28BFB6"/>
</g>
<mask id="mask1_1_196" style="mask-type:luminance" maskUnits="userSpaceOnUse" x="270" y="121" width="525" height="631">
<path d="M794.159 121.43H270.469V751.604H794.159V121.43Z" fill="white"/>
</mask>
<g mask="url(#mask1_1_196)">
<path d="M649.518 121.725C620.471 123.497 591.125 128.568 560.944 137.036C547.822 140.729 515.613 152.102 515.613 153.086C515.613 153.234 519.192 152.348 523.546 151.215C585.995 134.328 609.436 129.996 646.476 128.273C697.533 125.91 733.32 137.479 753.96 163.08C768.215 180.755 775.191 204.878 775.191 236.88C775.249 271.293 766.963 299.06 746.979 331.652C739.641 343.665 735.406 349.474 721.392 367.099C708.15 383.74 703.14 390.583 697.473 399.79C687.393 416.036 681.548 431.495 678.744 448.825C677.253 458.179 676.657 466.352 676.06 485.503C675.344 509.824 674.927 516.913 673.913 526.859C667.591 589.086 654.469 637.434 633.473 675.785C629.239 683.515 620.113 697.696 615.222 704.095C603.054 720.144 589.455 730.682 575.975 734.571L573.47 735.309V726.103C573.47 721.031 573.768 714.334 574.066 711.232C575.617 696.905 576.333 692.379 583.252 653.386C588.441 624.339 589.216 616.657 589.216 595.537C589.216 577.814 588.799 571.855 586.532 558.122C581.761 529.074 571.799 506.821 555.457 488.605C551.818 484.519 537.145 471.768 536.609 472.21C536.43 472.309 538.816 474.918 541.917 477.97C551.639 487.67 557.723 495.793 563.211 506.427C571.322 522.131 575.617 536.606 578.957 559.845C580.03 567.228 580.03 605.284 578.957 613.752C575.021 644.918 571.501 662.053 563.33 689.817C559.393 703.111 558.022 708.525 556.769 715.714C553.429 734.716 557.127 746.238 567.684 750.176C572.277 751.899 580.03 751.802 585.279 749.978C592.318 747.566 598.879 743.479 608.72 735.406C626.674 720.636 642.539 702.078 655.542 680.611C674.688 649.005 687.81 611.639 697.831 559.845C702.245 537.099 704.213 521.494 706.48 492.642C709.88 448.727 710.894 441.44 715.186 429.132C720.019 415.101 727.891 401.365 745.548 376.01C758.252 357.745 763.86 348.982 769.107 339.529C782.408 315.553 789.568 294.875 793.085 270.358C794.101 263.022 794.101 231.858 793.085 224.572C790.936 209.851 788.792 200.152 785.391 190.355C770.778 148.36 743.462 128.864 690.375 122.611C684.411 121.922 656.377 121.282 649.518 121.725Z" fill="#00F1C6"/>
<path d="M617.906 157.96C595.658 167.708 564.523 172.286 530.644 170.711C510.901 169.825 498.793 168.742 468.493 164.951C458.83 163.769 446.364 162.243 440.758 161.603C431.871 160.52 427.934 160.126 417.496 159.043C410.875 158.403 391.013 157.369 384.691 157.369C361.429 157.369 339.718 161.012 323.852 167.56C307.509 174.305 293.79 186.761 283.83 203.893C277.448 214.823 273.869 224.818 271.602 237.864C270.529 243.821 270.529 268.289 271.543 274.542C275.181 296.647 281.146 312.549 293.373 333.375C302.976 349.671 314.488 365.474 335.722 391.715C359.64 421.205 367.811 433.809 372.285 448.037C373.597 452.074 373.835 454.093 373.835 458.917C373.835 466.105 373.12 468.37 365.783 484.026C362.98 489.983 359.997 496.826 359.163 499.288C354.63 512.334 350.872 525.282 348.844 534.734C343.655 559.449 346.1 592.878 356.299 635.663C356.956 638.37 358.566 645.555 359.878 651.664C364.59 673.03 368.348 684.205 374.014 693.807C384.393 711.429 401.034 713.745 409.921 698.777C414.752 690.753 416.661 684.451 423.222 654.617C423.938 651.514 425.667 644.624 427.158 639.355C442.309 584.704 460.202 543.449 482.51 511.301C506.07 477.478 536.907 450.892 574.484 431.938C578.659 429.87 581.88 428.147 581.641 428.147C580.866 428.147 573.112 431.495 565.06 435.286C517.82 457.736 480.124 493.38 451.136 543.154C431.572 576.733 415.349 616.459 398.708 671.553C396.083 680.167 393.876 687.356 393.757 687.453C393.339 687.8 387.971 669.092 385.287 657.864C378.369 628.966 375.684 604.989 376.221 575.942C376.638 551.275 378.786 536.703 384.691 517.258C387.435 508.298 389.582 503.325 395.248 493.183C405.626 474.475 406.76 471.275 406.7 460.148C406.641 447.102 403.599 437.649 394.831 422.978C387.494 410.719 379.203 400.38 361.787 381.721C339.897 358.286 332.56 349.08 321.407 331.405C293.254 286.555 284.008 245.151 295.819 216.152C302.678 199.315 317.589 185.284 336.974 177.505C346.637 173.665 355.226 171.646 369.66 169.825C378.965 168.643 413.559 168.643 430.916 169.874C437.656 170.317 446.245 170.908 450.003 171.154C453.761 171.4 462.648 171.991 469.686 172.483C485.969 173.616 548.359 173.763 560.049 172.73C580.925 170.908 593.928 168.496 605.201 164.458C610.211 162.637 619.695 158.206 620.292 157.32C620.769 156.729 620.709 156.729 617.906 157.96Z" fill="#00F1C6"/>
<path d="M553.985 241.986C552.76 241.973 551.551 241.734 550.438 241.283C549.325 240.831 548.332 240.177 547.523 239.365L535.822 227.802C534.411 226.255 533.73 224.287 533.922 222.307C534.114 220.329 535.165 218.491 536.854 217.179C538.543 215.867 540.741 215.181 542.989 215.264C545.237 215.347 547.362 216.194 548.92 217.626L553.985 222.714L570.751 206.063C572.309 204.631 574.434 203.785 576.682 203.701C578.93 203.618 581.128 204.304 582.817 205.616C584.506 206.928 585.557 208.765 585.749 210.745C585.941 212.723 585.26 214.692 583.849 216.239L560.534 239.365C559.716 240.187 558.709 240.846 557.579 241.298C556.45 241.75 555.225 241.984 553.985 241.986ZM560.534 285.617L583.849 262.491C585.26 260.944 585.941 258.976 585.749 256.997C585.557 255.018 584.506 253.181 582.817 251.869C581.128 250.556 578.93 249.87 576.682 249.953C574.434 250.037 572.309 250.883 570.751 252.315L553.985 268.966L548.92 263.879C548.181 263.068 547.263 262.398 546.222 261.91C545.182 261.421 544.04 261.123 542.866 261.034C541.691 260.945 540.509 261.067 539.389 261.392C538.269 261.718 537.236 262.24 536.351 262.927C535.466 263.615 534.748 264.453 534.24 265.392C533.732 266.331 533.445 267.351 533.395 268.391C533.346 269.431 533.535 270.468 533.953 271.442C534.369 272.415 535.005 273.304 535.822 274.054L547.523 285.617C548.332 286.43 549.325 287.083 550.438 287.535C551.551 287.986 552.76 288.226 553.985 288.238C555.225 288.237 556.45 288.003 557.579 287.55C558.709 287.099 559.716 286.439 560.534 285.617ZM560.534 331.87L583.849 308.743C585.26 307.197 585.941 305.228 585.749 303.249C585.557 301.27 584.506 299.433 582.817 298.121C581.128 296.809 578.93 296.123 576.682 296.206C574.434 296.289 572.309 297.135 570.751 298.568L553.985 315.219L548.92 310.131C548.181 309.321 547.263 308.651 546.222 308.162C545.182 307.673 544.04 307.375 542.866 307.286C541.691 307.197 540.509 307.319 539.389 307.644C538.269 307.97 537.236 308.492 536.351 309.179C535.466 309.867 534.748 310.706 534.24 311.645C533.732 312.583 533.445 313.604 533.395 314.643C533.346 315.683 533.535 316.721 533.953 317.694C534.369 318.668 535.005 319.556 535.822 320.307L547.523 331.87C548.332 332.682 549.325 333.336 550.438 333.787C551.551 334.239 552.76 334.478 553.985 334.49C555.225 334.489 556.45 334.255 557.579 333.803C558.709 333.351 559.716 332.692 560.534 331.87Z" fill="#2CE3AC"/>
<path d="M699.55 326.782H612.229C609.913 326.782 607.692 325.97 606.054 324.524C604.417 323.078 603.496 321.118 603.496 319.073C603.496 317.029 604.417 315.068 606.054 313.622C607.692 312.176 609.913 311.364 612.229 311.364H699.55C701.866 311.364 704.087 312.176 705.725 313.622C707.362 315.068 708.282 317.029 708.282 319.073C708.282 321.118 707.362 323.078 705.725 324.524C704.087 325.97 701.866 326.782 699.55 326.782ZM699.55 280.53H612.229C609.913 280.53 607.692 279.718 606.054 278.272C604.417 276.826 603.496 274.865 603.496 272.821C603.496 270.777 604.417 268.816 606.054 267.37C607.692 265.924 609.913 265.112 612.229 265.112H699.55C701.866 265.112 704.087 265.924 705.725 267.37C707.362 268.816 708.282 270.777 708.282 272.821C708.282 274.865 707.362 276.826 705.725 278.272C704.087 279.718 701.866 280.53 699.55 280.53ZM699.55 234.277H612.229C609.913 234.277 607.692 233.465 606.054 232.019C604.417 230.574 603.496 228.613 603.496 226.568C603.496 224.524 604.417 222.563 606.054 221.118C607.692 219.672 609.913 218.86 612.229 218.86H699.55C701.866 218.86 704.087 219.672 705.725 221.118C707.362 222.563 708.282 224.524 708.282 226.568C708.282 228.613 707.362 230.574 705.725 232.019C704.087 233.465 701.866 234.277 699.55 234.277Z" fill="#00ABA1"/>
</g>
</g>
<path d="M222.805 917.4H225.805C229.672 917.4 231.605 916.2 231.605 913.8V856.3C231.605 853.9 229.672 852.7 225.805 852.7H222.805V850H254.405C264.872 850 272.739 853 278.005 859C283.272 864.933 285.905 873.6 285.905 885C285.905 896.533 283.272 905.267 278.005 911.2C272.739 917.067 264.839 920 254.305 920H222.805V917.4ZM254.105 916.1C261.305 916.1 266.739 913.4 270.405 908C274.139 902.6 276.005 894.933 276.005 885C276.005 875.133 274.172 867.5 270.505 862.1C266.905 856.7 261.505 854 254.305 854H241.405V916.1H254.105ZM302.429 894.2C302.362 894.733 302.329 895.533 302.329 896.6C302.329 902.867 303.795 907.9 306.729 911.7C309.729 915.5 313.662 917.4 318.529 917.4C322.929 917.4 326.562 916.267 329.429 914C332.295 911.667 334.162 908.1 335.029 903.3H337.929C337.395 908.633 335.395 912.933 331.929 916.2C328.462 919.4 323.595 921 317.329 921C309.595 921 303.562 918.9 299.229 914.7C294.962 910.433 292.829 904.367 292.829 896.5C292.829 888.9 294.962 882.933 299.229 878.6C303.562 874.2 309.495 872 317.029 872C323.962 872 329.229 873.867 332.829 877.6C336.495 881.267 338.329 886.033 338.329 891.9V894.2H302.429ZM317.329 875.8C313.395 875.8 310.195 877.1 307.729 879.7C305.262 882.3 303.629 885.833 302.829 890.3H330.029C329.895 886.567 328.795 883.233 326.729 880.3C324.729 877.3 321.595 875.8 317.329 875.8ZM401.374 917.5V920H378.074V917.5H379.674C381.207 917.5 382.441 917.233 383.374 916.7C384.307 916.167 384.774 915.367 384.774 914.3V886.8C384.774 883.267 383.874 880.6 382.074 878.8C380.274 877 377.707 876.1 374.374 876.1C372.041 876.1 369.774 876.7 367.574 877.9C365.441 879.033 363.674 880.767 362.274 883.1C360.874 885.433 360.174 888.233 360.174 891.5V914.3C360.174 915.367 360.641 916.167 361.574 916.7C362.574 917.233 363.841 917.5 365.374 917.5H366.874V920H343.574V917.5H345.474C347.074 917.5 348.341 917.233 349.274 916.7C350.274 916.167 350.774 915.367 350.774 914.3V880.7C350.774 879.3 350.074 878.6 348.674 878.6C348.074 878.6 347.107 878.867 345.774 879.4L345.074 877.2L357.674 872.7H360.174V880.5C361.641 878.1 363.874 876.1 366.874 874.5C369.941 872.833 373.341 872 377.074 872C382.607 872 386.841 873.233 389.774 875.7C392.707 878.167 394.174 881.467 394.174 885.6V914.3C394.174 915.367 394.674 916.167 395.674 916.7C396.674 917.233 397.974 917.5 399.574 917.5H401.374ZM441.457 910.9C441.123 914.367 439.723 916.933 437.257 918.6C434.857 920.2 431.89 921 428.357 921C423.357 921 419.557 919.967 416.957 917.9C414.357 915.833 413.057 912.4 413.057 907.6V876.9H405.257V873H413.057V864.4L420.057 859.7H422.457V873H436.557V876.9H422.457V907.4C422.457 910.8 423.057 913.333 424.257 915C425.523 916.6 427.457 917.4 430.057 917.4C432.123 917.4 433.89 916.9 435.357 915.9C436.89 914.833 437.79 913.167 438.057 910.9H441.457ZM459.281 921C455.214 921 452.014 920.067 449.681 918.2C447.414 916.267 446.281 913.667 446.281 910.4C446.281 905.533 448.814 901.533 453.881 898.4C459.014 895.267 466.881 892.967 477.481 891.5V886.3C477.481 882.9 476.414 880.333 474.281 878.6C472.147 876.867 469.314 876 465.781 876C463.247 876 460.914 876.5 458.781 877.5C456.647 878.5 455.581 879.567 455.581 880.7C455.581 881.1 455.647 881.6 455.781 882.2C455.914 882.8 455.981 883.267 455.981 883.6C455.981 884.6 455.681 885.467 455.081 886.2C454.481 886.933 453.514 887.3 452.181 887.3C451.047 887.3 450.081 886.9 449.281 886.1C448.547 885.233 448.181 884.033 448.181 882.5C448.181 879.167 450.081 876.6 453.881 874.8C457.681 872.933 462.314 872 467.781 872C473.914 872 478.647 873.367 481.981 876.1C485.314 878.767 486.981 882.433 486.981 887.1V914.2C486.981 916.333 487.714 917.4 489.181 917.4C490.114 917.4 491.314 917.133 492.781 916.6V918.3C491.781 919.167 490.514 919.833 488.981 920.3C487.447 920.767 485.881 921 484.281 921C482.481 921 480.914 920.633 479.581 919.9C478.247 919.167 477.581 917.967 477.581 916.3V913.3C474.914 916.233 471.947 918.267 468.681 919.4C465.481 920.467 462.347 921 459.281 921ZM463.881 917C466.347 917 468.914 916.2 471.581 914.6C474.314 913 476.281 911.167 477.481 909.1V894.8C470.414 896.2 464.981 898.233 461.181 900.9C457.447 903.5 455.581 906.433 455.581 909.7C455.581 912.1 456.314 913.933 457.781 915.2C459.247 916.4 461.281 917 463.881 917ZM497.245 917.5H499.045C500.711 917.5 502.011 917.233 502.945 916.7C503.945 916.167 504.445 915.367 504.445 914.3V856.4C504.445 855 503.745 854.3 502.345 854.3C501.745 854.3 500.778 854.567 499.445 855.1L498.745 852.8L511.345 848.3H513.845V914.3C513.845 915.367 514.311 916.167 515.245 916.7C516.245 917.233 517.545 917.5 519.145 917.5H520.845V920H497.245V917.5ZM552.058 917.4H554.958C556.891 917.4 558.324 917.133 559.258 916.6C560.258 916 560.758 915.067 560.758 913.8V856.3C560.758 855.033 560.258 854.133 559.258 853.6C558.324 853 556.891 852.7 554.958 852.7H552.058V850H586.258C600.658 850 607.858 857.1 607.858 871.3C607.858 885.5 600.658 892.6 586.258 892.6H570.558V913.8C570.558 916.2 572.491 917.4 576.358 917.4H579.358V920H552.058V917.4ZM584.458 888.6C589.191 888.6 592.658 887.1 594.858 884.1C597.124 881.033 598.258 876.767 598.258 871.3C598.258 859.833 593.658 854.1 584.458 854.1H570.558V888.6H584.458ZM642.399 872C644.332 872 645.966 872.367 647.299 873.1C648.699 873.767 649.399 874.833 649.399 876.3C649.399 877.567 649.066 878.533 648.399 879.2C647.799 879.867 646.932 880.2 645.799 880.2C645.066 880.2 644.466 880.067 643.999 879.8C643.599 879.533 643.232 879.167 642.899 878.7C642.432 878.233 641.999 877.9 641.599 877.7C641.199 877.433 640.632 877.3 639.899 877.3C638.166 877.3 636.499 877.933 634.899 879.2C633.366 880.467 632.099 882.3 631.099 884.7C630.099 887.1 629.532 889.867 629.399 893V914.3C629.399 915.367 629.899 916.167 630.899 916.7C631.899 917.233 633.199 917.5 634.799 917.5H636.499V920H612.799V917.5H614.699C616.299 917.5 617.566 917.233 618.499 916.7C619.499 916.167 619.999 915.367 619.999 914.3V880.7C619.999 879.3 619.332 878.6 617.999 878.6C617.332 878.6 616.332 878.867 614.999 879.4L614.399 877.2L627.199 872.7H629.399V881.9C630.332 879.033 631.999 876.667 634.399 874.8C636.799 872.933 639.466 872 642.399 872ZM678.307 921C670.24 921 663.973 918.867 659.507 914.6C655.107 910.333 652.907 904.3 652.907 896.5C652.907 888.7 655.14 882.667 659.607 878.4C664.073 874.133 670.307 872 678.307 872C686.307 872 692.507 874.133 696.907 878.4C701.373 882.667 703.607 888.7 703.607 896.5C703.607 904.3 701.373 910.333 696.907 914.6C692.507 918.867 686.307 921 678.307 921ZM678.307 917.2C683.24 917.2 687.14 915.4 690.007 911.8C692.873 908.2 694.307 903.1 694.307 896.5C694.307 889.967 692.873 884.933 690.007 881.4C687.14 877.8 683.24 876 678.307 876C673.307 876 669.373 877.8 666.507 881.4C663.64 884.933 662.207 889.967 662.207 896.5C662.207 903.1 663.64 908.2 666.507 911.8C669.373 915.4 673.307 917.2 678.307 917.2ZM733.432 921C725.766 921 719.799 918.9 715.532 914.7C711.332 910.433 709.232 904.367 709.232 896.5C709.232 888.9 711.366 882.933 715.632 878.6C719.966 874.2 725.966 872 733.632 872C736.832 872 739.899 872.467 742.832 873.4C745.766 874.333 748.166 875.933 750.032 878.2L751.032 872H753.532V888.6H751.132C750.466 884.333 748.799 881.133 746.132 879C743.532 876.867 740.232 875.8 736.232 875.8C730.632 875.8 726.299 877.733 723.232 881.6C720.232 885.4 718.732 890.4 718.732 896.6C718.732 902.867 720.166 907.9 723.032 911.7C725.966 915.5 729.832 917.4 734.632 917.4C739.032 917.4 742.632 916.267 745.432 914C748.232 911.667 750.032 908.1 750.832 903.3H753.832C753.299 908.633 751.332 912.933 747.932 916.2C744.532 919.4 739.699 921 733.432 921ZM780.889 921C773.356 921 768.023 918.9 764.889 914.7L763.789 920.8H761.289V905.9H763.789C764.523 909.367 766.156 912.133 768.689 914.2C771.223 916.2 774.389 917.2 778.189 917.2C782.056 917.2 785.023 916.5 787.089 915.1C789.223 913.7 790.289 911.667 790.289 909C790.289 906.933 789.356 905.333 787.489 904.2C785.623 903 782.756 901.733 778.889 900.4C775.289 899.067 772.356 897.833 770.089 896.7C767.889 895.5 765.989 893.9 764.389 891.9C762.789 889.833 761.989 887.233 761.989 884.1C761.989 880.233 763.489 877.267 766.489 875.2C769.489 873.067 773.689 872 779.089 872C782.089 872 785.023 872.5 787.889 873.5C790.756 874.5 792.956 875.967 794.489 877.9L795.589 872H798.089V886.5H795.589C794.789 883.367 793.189 880.833 790.789 878.9C788.456 876.967 785.456 876 781.789 876C778.589 876 776.023 876.633 774.089 877.9C772.156 879.167 771.189 880.9 771.189 883.1C771.189 885.5 772.189 887.367 774.189 888.7C776.256 890.033 779.356 891.4 783.489 892.8C787.023 894.067 789.856 895.233 791.989 896.3C794.123 897.3 795.923 898.767 797.389 900.7C798.923 902.567 799.689 904.967 799.689 907.9C799.689 912.3 797.923 915.6 794.389 917.8C790.923 919.933 786.423 921 780.889 921Z" fill="white"/>
<defs>
<filter id="filter0_d_1_196" x="228.922" y="79.8562" width="571.441" height="728.946" filterUnits="userSpaceOnUse" color-interpolation-filters="sRGB">
<feFlood flood-opacity="0" result="BackgroundImageFix"/>
<feColorMatrix in="SourceAlpha" type="matrix" values="0 0 0 0 0 0 0 0 0 0 0 0 0 0 0 0 0 0 127 0" result="hardAlpha"/>
<feOffset dy="4"/>
<feGaussianBlur stdDeviation="2"/>
<feComposite in2="hardAlpha" operator="out"/>
<feColorMatrix type="matrix" values="0 0 0 0 0 0 0 0 0 0 0 0 0 0 0 0 0 0 0.25 0"/>
<feBlend mode="normal" in2="BackgroundImageFix" result="effect1_dropShadow_1_196"/>
<feBlend mode="normal" in="SourceGraphic" in2="effect1_dropShadow_1_196" result="shape"/>
</filter>
</defs>
</svg>
