<svg width="107" height="150" viewBox="0 0 107 150" fill="none" xmlns="http://www.w3.org/2000/svg">
<rect width="107" height="150" fill="#09090A"/>
<g clip-path="url(#clip0_1_2)">
<path d="M75.7509 14.6489C70.2401 15.0034 64.6727 16.0176 58.9469 17.7112C56.4575 18.4496 50.3469 20.7242 50.3469 20.9211C50.3469 20.9507 51.0259 20.7734 51.8519 20.5469C63.6996 17.1696 68.1467 16.3031 75.1738 15.9585C84.8601 15.4858 91.6496 17.7998 95.5649 22.92C98.2694 26.4548 99.5933 31.2796 99.5933 37.6799C99.6046 44.5626 98.0317 50.116 94.2409 56.6344C92.8491 59.0369 92.0457 60.1988 89.3865 63.7238C86.8743 67.052 85.9238 68.4206 84.8488 70.2619C82.9364 73.5113 81.8275 76.6031 81.2957 80.069C81.0128 81.9399 80.8996 83.5744 80.7864 87.4047C80.6506 92.2688 80.5714 93.6867 80.3791 95.6757C79.1796 108.122 76.6901 117.791 72.707 125.461C71.9035 127.007 70.1722 129.843 69.2443 131.123C66.9359 134.333 64.3559 136.44 61.7985 137.218L61.3233 137.366V135.524C61.3233 134.51 61.3798 133.171 61.4364 132.551C61.7306 129.686 61.8664 128.78 63.179 120.981C64.1635 115.172 64.3106 113.636 64.3106 109.412C64.3106 105.867 64.2314 104.675 63.8014 101.928C62.8962 96.1188 61.0064 91.6682 57.9059 88.025C57.2156 87.2077 54.4319 84.6575 54.3301 84.7461C54.2961 84.7658 54.7488 85.2877 55.3372 85.8982C57.1817 87.8379 58.3359 89.4626 59.3769 91.5894C60.9159 94.7305 61.7306 97.6253 62.3643 102.273C62.568 103.75 62.568 111.361 62.3643 113.055C61.6175 119.288 60.9498 122.714 59.3996 128.268C58.6527 130.926 58.3925 132.009 58.1548 133.447C57.5211 137.248 58.2227 139.552 60.2256 140.339C61.0969 140.684 62.568 140.664 63.5638 140.3C64.899 139.818 66.1438 139 68.0109 137.385C71.417 134.432 74.427 130.719 76.8938 126.426C80.5262 120.105 83.0157 112.631 84.9167 102.273C85.7541 97.7238 86.1275 94.6025 86.5575 88.8324C87.2025 80.0493 87.3949 78.5921 88.2096 76.1304C89.1262 73.3242 90.6199 70.577 93.9694 65.5061C96.3796 61.853 97.4433 60.1003 98.4391 58.2098C100.963 53.4146 102.32 49.279 102.988 44.3755C103.18 42.9083 103.18 36.6755 102.988 35.2182C102.581 32.2741 102.173 30.3344 101.528 28.3749C98.7559 19.9759 93.5733 16.0766 83.5022 14.8261C82.3707 14.6883 77.0522 14.5603 75.7509 14.6489Z" fill="#00F1C6"/>
<path d="M69.7535 21.8959C65.5327 23.8455 59.6258 24.7613 53.1984 24.4462C49.4529 24.2689 47.1558 24.0523 41.4074 23.2941C39.5742 23.0578 37.2092 22.7526 36.1455 22.6246C34.4595 22.408 33.7126 22.3292 31.7323 22.1126C30.4763 21.9846 26.7081 21.7778 25.5086 21.7778C21.0955 21.7778 16.9765 22.5064 13.9665 23.816C10.866 25.165 8.26335 27.6561 6.37361 31.0827C5.16282 33.2686 4.48387 35.2675 4.05387 37.8768C3.85018 39.0682 3.85018 43.9619 4.04255 45.2124C4.73282 49.6335 5.8644 52.8139 8.18414 56.979C10.006 60.2382 12.1899 63.3989 16.2184 68.6471C20.756 74.5451 22.3063 77.0659 23.155 79.9115C23.4039 80.7189 23.4492 81.1226 23.4492 82.0876C23.4492 83.5252 23.3134 83.9781 21.9215 87.1093C21.3897 88.3007 20.8239 89.6694 20.6655 90.1617C19.8055 92.771 19.0926 95.3606 18.7078 97.2512C17.7234 102.194 18.1873 108.88 20.1223 117.436C20.2468 117.978 20.5523 119.416 20.8013 120.637C21.6952 124.91 22.4081 127.145 23.4831 129.065C25.4521 132.59 28.6092 133.053 30.2952 130.06C31.2118 128.455 31.5739 127.194 32.8187 121.227C32.9544 120.607 33.2826 119.229 33.5655 118.175C36.4397 107.245 39.8345 98.994 44.0666 92.5642C48.5363 85.7997 54.3866 80.4826 61.5156 76.6917C62.3077 76.2781 62.9187 75.9335 62.8735 75.9335C62.7263 75.9335 61.2553 76.6031 59.7277 77.3612C50.7655 81.8513 43.6139 88.9801 38.1145 98.9349C34.4029 105.65 31.325 113.596 28.1679 124.615C27.67 126.338 27.2513 127.775 27.2286 127.795C27.1494 127.864 26.131 124.122 25.6218 121.877C24.3092 116.097 23.8 111.302 23.9018 105.493C23.981 100.56 24.3884 97.645 25.5086 93.7557C26.0292 91.9636 26.4365 90.9691 27.5115 88.9407C29.4805 85.1991 29.6955 84.559 29.6842 82.3337C29.6729 79.7244 29.0958 77.8339 27.4323 74.8996C26.0405 72.4478 24.4676 70.3801 21.1634 66.6483C17.0105 61.9613 15.6186 60.12 13.5026 56.5851C8.16151 47.615 6.40756 39.3341 8.64809 33.5345C9.9494 30.167 12.7784 27.3607 16.456 25.805C18.2892 25.037 19.9186 24.6333 22.6571 24.2689C24.4223 24.0326 30.9855 24.0326 34.2784 24.2788C35.5571 24.3674 37.1866 24.4856 37.8995 24.5348C38.6124 24.584 40.2984 24.7022 41.6337 24.8006C44.7229 25.0271 56.5592 25.0567 58.7771 24.8499C62.7377 24.4856 65.2045 24.0031 67.3432 23.1957C68.2937 22.8314 70.0929 21.9452 70.2061 21.7679C70.2966 21.6498 70.2853 21.6498 69.7535 21.8959Z" fill="#00F1C6"/>
<path d="M57.6267 38.7012C57.3943 38.6987 57.165 38.6508 56.9538 38.5605C56.7426 38.4702 56.5542 38.3395 56.4008 38.177L54.1809 35.8644C53.9131 35.555 53.784 35.1613 53.8205 34.7655C53.8569 34.3697 54.0562 34.0023 54.3766 33.7398C54.6971 33.4774 55.114 33.3402 55.5405 33.3569C55.967 33.3735 56.3701 33.5427 56.6658 33.8292L57.6267 34.8468L60.8074 31.5166C61.1031 31.2301 61.5062 31.0609 61.9327 31.0442C62.3592 31.0276 62.7762 31.1648 63.0966 31.4272C63.4171 31.6897 63.6163 32.0571 63.6528 32.4529C63.6893 32.8487 63.5601 33.2423 63.2924 33.5517L58.8692 38.177C58.7139 38.3414 58.5228 38.4732 58.3086 38.5636C58.0943 38.654 57.8619 38.7009 57.6267 38.7012ZM58.8692 47.4275L63.2924 42.8022C63.5601 42.4928 63.6893 42.0992 63.6528 41.7034C63.6163 41.3076 63.4171 40.9401 63.0966 40.6777C62.7762 40.4153 62.3592 40.2781 61.9327 40.2947C61.5062 40.3114 61.1031 40.4806 60.8074 40.7671L57.6267 44.0973L56.6658 43.0797C56.5255 42.9176 56.3515 42.7837 56.154 42.6859C55.9566 42.5881 55.74 42.5285 55.5172 42.5107C55.2944 42.4929 55.07 42.5173 54.8576 42.5824C54.6452 42.6475 54.4491 42.7519 54.2812 42.8894C54.1133 43.0269 53.9771 43.1946 53.8807 43.3824C53.7843 43.5702 53.7298 43.7743 53.7205 43.9822C53.7111 44.1901 53.747 44.3977 53.8262 44.5923C53.9053 44.787 54.0259 44.9647 54.1809 45.1148L56.4008 47.4275C56.5542 47.59 56.7426 47.7206 56.9538 47.811C57.165 47.9013 57.3943 47.9492 57.6267 47.9517C57.8619 47.9514 58.0943 47.9045 58.3086 47.8141C58.5228 47.7237 58.7139 47.5919 58.8692 47.4275ZM58.8692 56.678L63.2924 52.0527C63.5601 51.7433 63.6893 51.3497 63.6528 50.9539C63.6163 50.5581 63.4171 50.1906 63.0966 49.9282C62.7762 49.6658 62.3592 49.5286 61.9327 49.5452C61.5062 49.5619 61.1031 49.7311 60.8074 50.0176L57.6267 53.3478L56.6658 52.3302C56.5255 52.1681 56.3515 52.0342 56.154 51.9364C55.9566 51.8386 55.74 51.779 55.5172 51.7612C55.2944 51.7434 55.07 51.7678 54.8576 51.8329C54.6452 51.898 54.4491 52.0024 54.2812 52.1399C54.1133 52.2774 53.9771 52.4451 53.8807 52.6329C53.7843 52.8207 53.7298 53.0247 53.7205 53.2327C53.7111 53.4406 53.747 53.6482 53.8262 53.8428C53.9053 54.0375 54.0259 54.2152 54.1809 54.3653L56.4008 56.678C56.5542 56.8405 56.7426 56.9711 56.9538 57.0614C57.165 57.1518 57.3943 57.1997 57.6267 57.2021C57.8619 57.2019 58.0943 57.155 58.3086 57.0646C58.5228 56.9742 58.7139 56.8424 58.8692 56.678Z" fill="#2CE3AC"/>
<path d="M85.2428 55.6604H68.6764C68.237 55.6604 67.8157 55.498 67.505 55.2088C67.1943 54.9197 67.0198 54.5276 67.0198 54.1187C67.0198 53.7098 67.1943 53.3176 67.505 53.0285C67.8157 52.7393 68.237 52.5769 68.6764 52.5769H85.2428C85.6822 52.5769 86.1036 52.7393 86.4143 53.0285C86.7249 53.3176 86.8995 53.7098 86.8995 54.1187C86.8995 54.5276 86.7249 54.9197 86.4143 55.2088C86.1036 55.498 85.6822 55.6604 85.2428 55.6604ZM85.2428 46.4099H68.6764C68.237 46.4099 67.8157 46.2475 67.505 45.9583C67.1943 45.6692 67.0198 45.2771 67.0198 44.8682C67.0198 44.4593 67.1943 44.0671 67.505 43.778C67.8157 43.4889 68.237 43.3264 68.6764 43.3264H85.2428C85.6822 43.3264 86.1036 43.4889 86.4143 43.778C86.7249 44.0671 86.8995 44.4593 86.8995 44.8682C86.8995 45.2771 86.7249 45.6692 86.4143 45.9583C86.1036 46.2475 85.6822 46.4099 85.2428 46.4099ZM85.2428 37.1594H68.6764C68.237 37.1594 67.8157 36.997 67.505 36.7079C67.1943 36.4187 67.0198 36.0266 67.0198 35.6177C67.0198 35.2088 67.1943 34.8166 67.505 34.5275C67.8157 34.2384 68.237 34.0759 68.6764 34.0759H85.2428C85.6822 34.0759 86.1036 34.2384 86.4143 34.5275C86.7249 34.8166 86.8995 35.2088 86.8995 35.6177C86.8995 36.0266 86.7249 36.4187 86.4143 36.7079C86.1036 36.997 85.6822 37.1594 85.2428 37.1594Z" fill="#00ABA1"/>
</g>
<defs>
<clipPath id="clip0_1_2">
<rect width="99.3528" height="126.035" fill="white" transform="translate(3.83887 14.5898)"/>
</clipPath>
</defs>
</svg>
